<svg width="20" height="20" viewBox="0 0 20 20" fill="none" xmlns="http://www.w3.org/2000/svg">
<g clip-path="url(#clip0_3136_24519)">
<path d="M17 4C17.5523 4 18 4.44772 18 5V15C18 15.5523 17.5523 16 17 16H3C2.44772 16 2 15.5523 2 15V5C2 4.44772 2.44772 4 3 4H17Z" fill="white"/>
<path d="M10.2908 3.62686C10.3824 3.52862 10.4928 3.44983 10.6154 3.39517C10.7381 3.34052 10.8706 3.31112 11.0048 3.30875C11.1391 3.30638 11.2725 3.33113 11.397 3.38142C11.5215 3.43172 11.6346 3.5066 11.7295 3.60156C11.8245 3.69651 11.8994 3.80956 11.9497 3.93407C12 4.05859 12.0247 4.19198 12.0223 4.32625C12.02 4.46052 11.9906 4.59298 11.9359 4.71565C11.8813 4.83832 11.8025 4.94873 11.7042 5.04028" fill="#F0F3F7"/>
<path d="M6.87097 9.87381L4.66406 10.667L5.45748 8.46032" fill="#F0F3F7"/>
<path d="M5.45748 8.46032L10.2908 3.62686C10.3824 3.52862 10.4928 3.44983 10.6154 3.39517C10.7381 3.34052 10.8706 3.31112 11.0048 3.30875C11.1391 3.30638 11.2725 3.33113 11.397 3.38142C11.5215 3.43172 11.6346 3.5066 11.7295 3.60156C11.8245 3.69651 11.8994 3.80956 11.9497 3.93407C12 4.05859 12.0247 4.19198 12.0223 4.32625C12.02 4.46052 11.9906 4.59298 11.9359 4.71565C11.8813 4.83832 11.8025 4.94873 11.7042 5.04028L6.87097 9.87381L4.66406 10.667L5.45748 8.46032Z" fill="#F0F3F7"/>
<path fill-rule="evenodd" clip-rule="evenodd" d="M10.9961 2.80882C11.1975 2.80528 11.3974 2.84286 11.584 2.9182C11.7708 2.99369 11.9407 3.10597 12.083 3.24828C12.2253 3.39059 12.3376 3.56045 12.4131 3.7473C12.4462 3.82932 12.471 3.91408 12.4893 4.00023H17C17.5523 4.00023 18 4.44794 18 5.00023V15.0002C17.9999 15.5524 17.5522 16.0002 17 16.0002H3C2.4478 16.0002 2.00014 15.5524 2 15.0002V5.00023C2 4.44794 2.44772 4.00023 3 4.00023H9.21094L9.9375 3.27367C10.0724 3.13227 10.2336 3.01826 10.4121 2.93871C10.5961 2.85676 10.7947 2.81238 10.9961 2.80882ZM3 5.00023V15.0002H17V5.00023H12.3516C12.2753 5.14602 12.1761 5.27887 12.0566 5.39281L12.0576 5.39378L7.22461 10.2278C7.17253 10.2798 7.10931 10.3201 7.04004 10.345L4.83301 11.1379C4.65096 11.2032 4.44736 11.1574 4.31055 11.0207C4.17379 10.884 4.12812 10.6803 4.19336 10.4983L4.9873 8.29124L5.03516 8.19261C5.05472 8.16178 5.07755 8.13267 5.10352 8.10667L8.21094 5.00023H3ZM14.5 12.0002C14.7761 12.0002 15 12.2241 15 12.5002C14.9999 12.7763 14.7761 13.0002 14.5 13.0002H7.5C7.22394 13.0002 7.00014 12.7763 7 12.5002C7 12.2241 7.22386 12.0002 7.5 12.0002H14.5ZM14.5 10.0002C14.7761 10.0002 15 10.2241 15 10.5002C14.9999 10.7763 14.7761 11.0002 14.5 11.0002H10.5C10.2239 11.0002 10.0001 10.7763 10 10.5002C10 10.2241 10.2239 10.0002 10.5 10.0002H14.5ZM11.0137 3.80882C10.9467 3.81001 10.8805 3.82459 10.8193 3.85179C10.758 3.87914 10.702 3.91894 10.6562 3.968C10.6524 3.97217 10.6486 3.97667 10.6445 3.9807L5.88965 8.7346L5.49316 9.83714L6.59668 9.44066L11.3506 4.68675C11.3546 4.68272 11.3591 4.67892 11.3633 4.67503C11.4123 4.62935 11.4521 4.57324 11.4795 4.51195C11.5067 4.45082 11.5212 4.38449 11.5225 4.31761C11.5236 4.25068 11.5115 4.18361 11.4863 4.12132C11.4613 4.0593 11.4235 4.00283 11.376 3.95531C11.3284 3.90778 11.272 3.87005 11.21 3.84496C11.1476 3.81977 11.0807 3.80764 11.0137 3.80882Z" fill="#848F99"/>
</g>
<defs>
<clipPath id="clip0_3136_24519">
<rect width="20" height="20" fill="white"/>
</clipPath>
</defs>
</svg>
