<svg width="20" height="20" viewBox="0 0 20 20" fill="none" xmlns="http://www.w3.org/2000/svg">
<g clip-path="url(#clip0_3136_24550)">
<path d="M10 13C11.1046 13 12 13.8954 12 15C12 16.1046 11.1046 17 10 17C8.89543 17 8 16.1046 8 15C8 13.8954 8.89543 13 10 13ZM10 8C11.1046 8 12 8.89543 12 10C12 11.1046 11.1046 12 10 12C8.89543 12 8 11.1046 8 10C8 8.89543 8.89543 8 10 8ZM10 3C11.1046 3 12 3.89543 12 5C12 6.10457 11.1046 7 10 7C8.89543 7 8 6.10457 8 5C8 3.89543 8.89543 3 10 3Z" fill="#F0F3F7"/>
<path d="M10 13C11.1046 13 12 13.8954 12 15C12 16.1046 11.1046 17 10 17C8.89543 17 8 16.1046 8 15C8 13.8954 8.89543 13 10 13ZM10 14C9.44772 14 9 14.4477 9 15C9 15.5523 9.44772 16 10 16C10.5523 16 11 15.5523 11 15C11 14.4477 10.5523 14 10 14ZM10 8C11.1046 8 12 8.89543 12 10C12 11.1046 11.1046 12 10 12C8.89543 12 8 11.1046 8 10C8 8.89543 8.89543 8 10 8ZM10 9C9.44772 9 9 9.44772 9 10C9 10.5523 9.44772 11 10 11C10.5523 11 11 10.5523 11 10C11 9.44772 10.5523 9 10 9ZM10 3C11.1046 3 12 3.89543 12 5C12 6.10457 11.1046 7 10 7C8.89543 7 8 6.10457 8 5C8 3.89543 8.89543 3 10 3ZM10 4C9.44772 4 9 4.44772 9 5C9 5.55228 9.44772 6 10 6C10.5523 6 11 5.55228 11 5C11 4.44772 10.5523 4 10 4Z" fill="#848F99"/>
</g>
<defs>
<clipPath id="clip0_3136_24550">
<rect width="20" height="20" fill="white"/>
</clipPath>
</defs>
</svg>
